<svg xmlns="http://www.w3.org/2000/svg" width="50" height="50" viewBox="0 0 50 50"><g><g><g/><g><g/><g><g><path fill="#ff3242" fill-opacity=".6" d="M-296.965 65.86a.738.738 0 0 1 .017-.271.588.588 0 0 0-.146-.545l-.413-.414a.103.103 0 0 0-.145.145l.09.09c-.22.152-.473.248-.738.28a.103.103 0 0 0-.09.101v.296c0 .17.07.33.196.437a.466.466 0 0 1-.304.82.467.467 0 0 1-.467-.467.103.103 0 0 0-.205 0 .672.672 0 1 0 1.11-.509.369.369 0 0 1-.126-.281v-.207a1.85 1.85 0 0 0 .772-.322l.164.165a.383.383 0 0 1 .104.36.943.943 0 0 0-.022.346.103.103 0 1 0 .203-.024z"/></g><g><path fill="#ff3242" fill-opacity=".6" d="M-298.799 65.526a.369.369 0 0 1-.13.286.103.103 0 0 0 .13.158.573.573 0 0 0 .205-.444v-.281a.103.103 0 0 0-.09-.102 1.646 1.646 0 0 1-.84-.345.103.103 0 0 0-.135.008l-.284.283a.588.588 0 0 0-.172.43.346.346 0 1 1-.386-.334.589.589 0 0 0 .347-.168l.352-.352a.103.103 0 0 0 .008-.137 1.646 1.646 0 0 1-.33-.723h.272a.103.103 0 0 0 0-.205h-.68a.573.573 0 0 0-.44.201.465.465 0 0 1-.823-.301.467.467 0 0 1 .823-.301c.107.127.268.2.44.2h.543a.103.103 0 0 0 0-.205h-.136c.043-.226.132-.44.263-.63l.187.187a.102.102 0 0 0 .145 0 .103.103 0 0 0 0-.145l-.499-.499a.589.589 0 0 0-.556-.158.738.738 0 1 1 .536-.54.59.59 0 0 0 .159.553l.409.409a.102.102 0 0 0 .145 0 .103.103 0 0 0 0-.145l-.093-.093c.222-.151.477-.246.744-.276a.103.103 0 0 0 .091-.102v-.281a.573.573 0 0 0-.204-.444.465.465 0 0 1 .298-.825c.257 0 .467.21.467.466a.103.103 0 0 0 .205 0 .672.672 0 1 0-1.101.517c.083.069.13.173.13.286v.192a1.85 1.85 0 0 0-.777.32l-.169-.17a.384.384 0 0 1-.105-.359.944.944 0 1 0-1.582.444.947.947 0 0 0 .897.247.383.383 0 0 1 .361.104l.165.164a1.85 1.85 0 0 0-.324.778h-.2a.369.369 0 0 1-.283-.127.67.67 0 0 0-1.184.433.672.672 0 0 0 1.184.433.369.369 0 0 1 .284-.127h.2c.046.28.156.546.322.777l-.29.29a.383.383 0 0 1-.225.108.547.547 0 0 0-.325.936.55.55 0 0 0 .94-.404.382.382 0 0 1 .112-.278l.22-.22c.233.164.499.274.78.319v.192z"/></g><g><path fill="#ff3242" fill-opacity=".6" d="M-296.465 63.805c.111 0 .215.047.283.128a.67.67 0 0 0 1.185-.433.672.672 0 0 0-1.185-.434.369.369 0 0 1-.283.128h-.2a1.85 1.85 0 0 0-.318-.771l.318-.319a.379.379 0 0 1 .211-.106.47.47 0 0 0 .4-.468.47.47 0 0 0-.473-.474.47.47 0 0 0-.47.413.366.366 0 0 1-.107.21l-.31.31a1.85 1.85 0 0 0-.77-.321v-.206c0-.11.045-.213.124-.282a.103.103 0 0 0-.133-.155.573.573 0 0 0-.197.437v.295c0 .052.039.095.09.102.304.036.591.156.831.347.04.032.1.029.136-.008l.374-.374a.572.572 0 0 0 .166-.329.267.267 0 0 1 .266-.234.267.267 0 0 1 .269.269.267.267 0 0 1-.227.265.582.582 0 0 0-.325.164l-.381.381a.103.103 0 0 0-.008.136c.166.21.277.457.326.718h-.272a.103.103 0 0 0 0 .205h.68a.573.573 0 0 0 .44-.2.465.465 0 0 1 .823.3.467.467 0 0 1-.823.302.573.573 0 0 0-.44-.2h-.544a.103.103 0 0 0 0 .204h.136c-.041.224-.129.436-.257.624l-.182-.183a.103.103 0 1 0-.145.145l.498.499a.59.59 0 0 0 .553.159.732.732 0 0 1 .696.194c.139.14.216.325.216.522a.738.738 0 0 1-1.325.446.103.103 0 1 0-.164.124.939.939 0 0 0 .75.372.94.94 0 0 0 .944-.942.936.936 0 0 0-.276-.667.936.936 0 0 0-.89-.249.384.384 0 0 1-.359-.104l-.168-.169a1.85 1.85 0 0 0 .318-.77z"/></g></g></g><g><g><path fill="#ff3242" fill-opacity=".6" d="M35.953 41.828a5.274 5.274 0 0 1 .122-1.936c.344-1.366-.056-2.847-1.045-3.892l-2.954-2.955a.732.732 0 0 0-1.035 1.035l.647.648a11.749 11.749 0 0 1-5.277 1.993.732.732 0 0 0-.646.727v2.107c0 1.217.513 2.355 1.406 3.122a3.325 3.325 0 0 1 1.162 2.525A3.336 3.336 0 0 1 25 48.533a3.336 3.336 0 0 1-3.334-3.33.732.732 0 0 0-1.465 0 4.803 4.803 0 0 0 4.799 4.795 4.803 4.803 0 0 0 4.799-4.796 4.79 4.79 0 0 0-1.673-3.637c-.569-.488-.895-1.22-.895-2.01v-1.473a13.217 13.217 0 0 0 5.51-2.303l1.176 1.176c.684.686.967 1.674.738 2.58a6.732 6.732 0 0 0-.155 2.47.732.732 0 1 0 1.454-.177z"/></g><g><path fill="#ff3242" fill-opacity=".6" d="M22.867 39.472c0 .807-.34 1.55-.932 2.042a.732.732 0 1 0 .936 1.127c.928-.77 1.46-1.925 1.46-3.169v-2.011a.732.732 0 0 0-.651-.728 11.755 11.755 0 0 1-5.989-2.46.733.733 0 0 0-.972.057l-2.023 2.023a4.199 4.199 0 0 0-1.235 3.064 2.442 2.442 0 0 1-.72 1.81 2.47 2.47 0 0 1-4.214-1.748c0-.659.256-1.278.722-1.744.396-.396.899-.64 1.454-.704a4.207 4.207 0 0 0 2.48-1.194L15.7 33.32a.732.732 0 0 0 .055-.974 11.76 11.76 0 0 1-2.36-5.163h1.948a.732.732 0 1 0 0-1.465h-4.859c-1.23 0-2.376.523-3.145 1.434a3.324 3.324 0 0 1-2.544 1.183A3.336 3.336 0 0 1 1.465 25a3.336 3.336 0 0 1 3.33-3.334c.983 0 1.91.431 2.545 1.183.769.911 1.915 1.434 3.145 1.434h3.882a.732.732 0 1 0 0-1.465h-.972a11.75 11.75 0 0 1 1.875-4.507l1.336 1.336a.73.73 0 0 0 1.036 0 .732.732 0 0 0 0-1.036l-3.56-3.56c-1.05-1.05-2.573-1.48-3.976-1.127a5.224 5.224 0 0 1-5.013-1.38 5.273 5.273 0 0 1 .003-7.448 5.273 5.273 0 0 1 7.449-.003 5.23 5.23 0 0 1 1.39 4.97c-.339 1.396.097 2.908 1.137 3.948l2.92 2.921a.73.73 0 0 0 1.036 0 .732.732 0 0 0 0-1.035l-.663-.664a11.75 11.75 0 0 1 5.315-1.966.732.732 0 0 0 .651-.728v-2.012c0-1.243-.532-2.398-1.46-3.168a3.322 3.322 0 0 1-1.205-2.564A3.336 3.336 0 0 1 25 1.465a3.336 3.336 0 0 1 3.334 3.33.732.732 0 1 0 1.465 0A4.803 4.803 0 0 0 25 0a4.803 4.803 0 0 0-4.799 4.796c0 1.43.632 2.775 1.734 3.69.592.491.932 1.235.932 2.041V11.9a13.212 13.212 0 0 0-5.555 2.28l-1.205-1.204c-.68-.681-.967-1.664-.748-2.566a6.685 6.685 0 0 0-1.778-6.353c-2.624-2.624-6.895-2.622-9.52.004-2.626 2.625-2.628 6.896-.004 9.52a6.764 6.764 0 0 0 6.407 1.764c.906-.229 1.896.055 2.582.741l1.173 1.174a13.215 13.215 0 0 0-2.311 5.558h-1.423c-.797 0-1.536-.333-2.026-.914a4.785 4.785 0 0 0-3.663-1.703A4.803 4.803 0 0 0 0 25a4.803 4.803 0 0 0 4.796 4.799c1.414 0 2.75-.62 3.663-1.703.49-.58 1.228-.914 2.026-.914h1.423c.332 2.003 1.12 3.9 2.306 5.552l-2.067 2.067a2.737 2.737 0 0 1-1.613.775 3.889 3.889 0 0 0-2.32 1.123 3.904 3.904 0 0 0-1.152 2.781c0 1.05.41 2.038 1.153 2.781a3.923 3.923 0 0 0 2.783 1.151 3.918 3.918 0 0 0 2.779-1.149 3.893 3.893 0 0 0 1.149-2.885 2.727 2.727 0 0 1 .805-1.989l1.575-1.574a13.212 13.212 0 0 0 5.56 2.285v1.373z"/></g><g><path fill="#ff3242" fill-opacity=".6" d="M39.519 27.178c.797 0 1.536.333 2.026.913a4.785 4.785 0 0 0 3.663 1.704 4.803 4.803 0 0 0 4.796-4.8 4.803 4.803 0 0 0-4.796-4.798c-1.414 0-2.75.62-3.663 1.703-.49.58-1.229.913-2.026.913h-1.423a13.217 13.217 0 0 0-2.277-5.511l2.275-2.276c.408-.408.929-.67 1.508-.76a3.356 3.356 0 0 0 1.869-.95c.639-.64.99-1.49.99-2.393 0-.904-.353-1.753-.992-2.393a3.363 3.363 0 0 0-2.393-.992h-.001a3.36 3.36 0 0 0-2.391.99 3.347 3.347 0 0 0-.963 1.964c-.069.542-.34 1.074-.763 1.498l-2.22 2.22a13.219 13.219 0 0 0-5.503-2.298v-1.474c0-.789.326-1.521.895-2.01a.733.733 0 0 0-.954-1.111c-.893.767-1.406 1.904-1.406 3.121v2.108c0 .37.277.683.646.727a11.757 11.757 0 0 1 5.933 2.479c.291.232.71.208.974-.056l2.67-2.67c.653-.653 1.072-1.487 1.181-2.35.054-.424.242-.809.546-1.112a1.904 1.904 0 0 1 1.355-.56c.514 0 .996.2 1.358.562.363.363.563.845.563 1.357 0 .513-.199.995-.561 1.357a1.9 1.9 0 0 1-1.058.538 4.16 4.16 0 0 0-2.319 1.172l-2.724 2.725a.732.732 0 0 0-.057.971 11.76 11.76 0 0 1 2.332 5.127H34.66a.732.732 0 0 0 0 1.465h4.859c1.23 0 2.376-.522 3.145-1.433a3.324 3.324 0 0 1 2.544-1.184 3.337 3.337 0 0 1 3.331 3.335 3.336 3.336 0 0 1-3.33 3.334c-.983 0-1.91-.431-2.545-1.184-.769-.91-1.915-1.433-3.145-1.433h-3.882a.732.732 0 0 0 0 1.465h.972a11.756 11.756 0 0 1-1.838 4.453l-1.303-1.303a.732.732 0 1 0-1.036 1.036l3.56 3.56c1.04 1.04 2.553 1.475 3.948 1.136a5.23 5.23 0 0 1 4.971 1.39 5.228 5.228 0 0 1 1.541 3.724c0 1.407-.549 2.73-1.544 3.725a5.273 5.273 0 0 1-7.923-.54.732.732 0 0 0-1.167.886 6.706 6.706 0 0 0 5.362 2.66c1.725 0 3.45-.656 4.764-1.97a6.693 6.693 0 0 0 1.973-4.76 6.683 6.683 0 0 0-1.97-4.76 6.685 6.685 0 0 0-6.353-1.778c-.902.219-1.885-.068-2.565-.749l-1.205-1.205a13.219 13.219 0 0 0 2.272-5.505z"/></g><g><path fill="#ff3242" fill-opacity=".6" d="M25.32 21.64a3.254 3.254 0 0 1-3.25 3.25 3.254 3.254 0 0 1-3.25-3.25 3.254 3.254 0 0 1 3.25-3.25 3.254 3.254 0 0 1 3.25 3.25zm-1.465 0c0-.984-.8-1.785-1.785-1.785-.984 0-1.785.8-1.785 1.785 0 .984.8 1.785 1.785 1.785.984 0 1.785-.8 1.785-1.785z"/></g><g><path fill="#ff3242" fill-opacity=".6" d="M28.993 22.63a2.976 2.976 0 0 1 2.972 2.973 2.976 2.976 0 0 1-2.972 2.972 2.976 2.976 0 0 1-2.973-2.972 2.976 2.976 0 0 1 2.973-2.973zm-1.508 2.973a1.51 1.51 0 0 0 1.508 1.508 1.51 1.51 0 0 0 1.508-1.508 1.51 1.51 0 0 0-1.508-1.508 1.51 1.51 0 0 0-1.508 1.508z"/></g><g><path fill="#ff3242" fill-opacity=".6" d="M22.675 26.63a2.518 2.518 0 0 1 2.514 2.515 2.518 2.518 0 0 1-2.514 2.514 2.518 2.518 0 0 1-2.515-2.514 2.518 2.518 0 0 1 2.515-2.515zm0 1.465a1.051 1.051 0 0 0 0 2.1 1.051 1.051 0 0 0 0-2.1z"/></g><g><path fill="#ff3242" fill-opacity=".6" d="M5.902 8.814a.732.732 0 1 0 0-1.464.732.732 0 0 0 0 1.464z"/></g><g><path fill="#ff3242" fill-opacity=".6" d="M6.58 11.511a.732.732 0 1 0-.234-1.445.732.732 0 0 0 .234 1.445z"/></g><g><path fill="#ff3242" fill-opacity=".6" d="M8.462 9.954a.732.732 0 1 0 0-1.464.732.732 0 0 0 0 1.464z"/></g><g><path fill="#ff3242" fill-opacity=".6" d="M40.872 37.52a.732.732 0 1 0 0 1.464.732.732 0 0 0 0-1.464z"/></g><g><path fill="#ff3242" fill-opacity=".6" d="M40.7 40.962a.732.732 0 1 0 1.464 0 .732.732 0 0 0-1.464 0z"/></g><g><path fill="#ff3242" fill-opacity=".6" d="M43.422 40.134a.732.732 0 1 0 0-1.464.732.732 0 0 0 0 1.464z"/></g><g><path fill="#ff3242" fill-opacity=".6" d="M27.892 33.004a.732.732 0 1 0 0-1.464.732.732 0 0 0 0 1.464z"/></g><g><path fill="#ff3242" fill-opacity=".6" d="M27.892 19.134a.732.732 0 1 0 0-1.464.732.732 0 0 0 0 1.464z"/></g><g><path fill="#ff3242" fill-opacity=".6" d="M18.422 26.944a.732.732 0 1 0 0-1.464.732.732 0 0 0 0 1.464z"/></g></g><g><g/><g><g><g><path fill="#ff3242" fill-opacity=".6" d="M32.07 32.07a9.992 9.992 0 0 1-14.14 0 9.992 9.992 0 0 1 0-14.14 9.992 9.992 0 0 1 14.14 0 9.992 9.992 0 0 1 0 14.14zM34.411 25c0-5.19-4.222-9.412-9.412-9.412S15.588 19.81 15.588 25 19.81 34.412 25 34.412 34.412 30.19 34.412 25z"/></g></g></g></g></g></g></svg>