<svg xmlns="http://www.w3.org/2000/svg" width="50" height="50" viewBox="0 0 50 50"><g><g><g/><g><g><g><path fill="#ff3242" fill-opacity=".6" d="M42.674 42.674c-9.77 9.769-25.58 9.768-35.347 0-9.77-9.77-9.769-25.58 0-35.347 9.769-9.77 25.578-9.769 35.347 0 9.769 9.769 9.768 25.578 0 35.347zM48.53 25C48.53 12.026 37.974 1.47 25 1.47 12.026 1.47 1.47 12.026 1.47 25c0 12.974 10.556 23.53 23.53 23.53 12.974 0 23.53-10.556 23.53-23.53z"/></g></g></g><g><g><g><path fill="#ff3242" fill-opacity=".6" d="M45.907 26.384a20.82 20.82 0 0 1-4.327 11.425.732.732 0 0 1-.579.284c-.429 0 .374.677-11.92-11.617L12.124 9.52a.733.733 0 0 1 .07-1.097C25.23-1.662 44.184 6.652 45.842 22.844a.732.732 0 1 1-1.457.15C42.844 7.937 25.695.622 13.76 9.083l8.108 8.109v-4.047a2.075 2.075 0 0 1-.805-1.639V9.15c0-1.147.933-2.08 2.08-2.08h3.704c1.147 0 2.08.933 2.08 2.08v2.357c0 .666-.316 1.258-.805 1.64v6.007c.003 1.868 1.862 2.09 2.585 3.239.471.735.374 1.15.374 4.013l9.836 9.836a19.35 19.35 0 0 0 3.527-9.953.731.731 0 1 1 1.462.095zM22.529 11.507c0 .343.281.615.615.615 4.029 0 3.784.021 3.951-.053a.615.615 0 0 0 .368-.562V9.15a.615.615 0 0 0-.615-.615h-3.704a.616.616 0 0 0-.615.615zm.804 2.08v1.94h3.326v-1.94zm4.689 8.434a3.672 3.672 0 0 1-1.363-2.866v-2.163h-3.326v1.666l6.284 6.284c0-2.137.21-1.51-1.595-2.921z"/></g></g></g><g><g><g><path fill="#ff3242" fill-opacity=".6" d="M38.71 40.837A20.941 20.941 0 0 1 25 45.946c-11.552 0-20.95-9.398-20.95-20.95 0-5.038 1.814-9.907 5.109-13.71a.732.732 0 0 1 .527-.253c.463-.016-1.443-1.773 29.063 28.733.3.3.282.793-.039 1.071zM23.597 26.685h-3.224V37.53h2.912a.732.732 0 1 1 0 1.464h-2.912v1.027c0 .529.43.958.958.958h7.326a.96.96 0 0 0 .959-.958v-1.027h-2.913a.732.732 0 1 1 0-1.464h2.913v-4.825zm-3.204-3.203c-.027.127-.02.095-.02 1.739h1.76zm16.752 16.752l-6.065-6.066v5.852a2.426 2.426 0 0 1-2.423 2.423h-7.326a2.426 2.426 0 0 1-2.423-2.423V23.677c0-.45.124-.894.38-1.3l-9.526-9.526a19.479 19.479 0 0 0-4.247 12.145c0 10.744 8.74 19.485 19.485 19.485 4.422 0 8.704-1.503 12.145-4.248z"/></g></g></g></g></g></svg>