<svg id="Layer_1" enable-background="new 0 0 512 512" height="512" viewBox="0 0 512 512" width="512" xmlns="http://www.w3.org/2000/svg"><path d="m7.5 88.675h20.924v20.45c0 11.292 1.665 22.202 4.749 32.504h-19.109c-4.142 0-7.5 3.358-7.5 7.5s3.358 7.5 7.5 7.5h24.79c5.77 12.473 13.737 23.728 23.403 33.267l-19.953 19.954c-2.929 2.929-2.929 7.678 0 10.606 2.929 2.929 7.678 2.929 10.606 0l20.099-20.099c.209-.209.399-.43.579-.656 13.176 9.97 28.584 17.138 45.332 20.602v24.834c0 4.142 3.358 7.5 7.5 7.5s7.5-3.358 7.5-7.5v-22.772c6.788.477 59.287.285 60.29.278v22.495c0 4.142 3.358 7.5 7.5 7.5s7.5-3.358 7.5-7.5v-23.59c19.046-2.665 36.592-10.07 51.403-20.985 18.063 18.063 17.968 18.942 22.05 18.942 6.622 0 10.042-8.065 5.304-12.803l-15.848-15.847c10.11-9.74 18.421-21.333 24.385-34.225h23.399c4.143 0 7.5-3.358 7.5-7.5s-3.357-7.5-7.5-7.5h-17.718c3.084-10.302 4.749-21.212 4.749-32.504 0-7.311-1.648-14.241-4.582-20.45h22.553c4.143 0 7.5-3.358 7.5-7.5s-3.357-7.5-7.5-7.5h-32.654c-.308 0-.61.024-.909.06-5.922-5.434-13.209-9.397-21.279-11.326v-26.486c0-4.142-3.357-7.5-7.5-7.5s-7.5 3.358-7.5 7.5v25.326c-10.957.869-20.892 5.418-28.555 12.424h-26.286c-4.142 0-7.5 3.358-7.5 7.5s3.358 7.5 7.5 7.5h15.212c-2.934 6.209-4.582 13.14-4.582 20.45 0 9.62-7.826 17.446-17.446 17.446h-51.455c-9.62 0-17.446-7.826-17.446-17.446v-32.66c0-23.633-17.159-43.321-39.669-47.296v-21.668c0-4.142-3.358-7.5-7.5-7.5s-7.5 3.358-7.5 7.5v21.392c-22.46 3.115-40.002 21.805-41.325 44.783h-21.011c-4.142 0-7.5 3.358-7.5 7.5s3.358 7.5 7.5 7.5zm35.924-12.21c0-18.219 14.822-33.041 33.041-33.041s33.041 14.822 33.041 33.041v32.66c0 17.891 14.555 32.446 32.446 32.446h51.455c17.891 0 32.446-14.555 32.446-32.446 0-18.219 14.822-33.041 33.041-33.041s33.041 14.822 33.041 33.041c0 54.329-44.2 98.528-98.528 98.528h-51.455c-54.329 0-98.528-44.199-98.528-98.528z"/><ellipse cx="77.336" cy="84.843" rx="13.079" ry="13.079" transform="matrix(.851 -.526 .526 .851 -33.054 53.329)"/><ellipse cx="259.674" cy="111.081" rx="13.079" ry="13.079" transform="matrix(.924 -.383 .383 .924 -22.742 107.828)"/><circle cx="163.534" cy="173.63" r="13.079"/><path d="m421.248 391.879c-3.804-1.648-8.218.098-9.864 3.898-6.768 15.612-22.107 25.699-39.08 25.699-23.47 0-42.564-19.094-42.564-42.563v-81.814c0-5.6 1.074-11.042 3.192-16.175 1.58-3.829-.243-8.213-4.071-9.794-3.833-1.58-8.215.243-9.794 4.072-2.871 6.957-4.327 14.324-4.327 21.897v81.814c0 31.741 25.823 57.563 57.564 57.563 22.954 0 43.695-13.634 52.842-34.733 1.647-3.8-.098-8.216-3.898-9.864z"/><path d="m372.303 239.535c-11.282 0-22.215 3.277-31.618 9.478-3.458 2.28-4.412 6.932-2.132 10.39s6.933 4.413 10.39 2.132c6.945-4.58 15.022-7 23.36-7 23.47 0 42.564 19.094 42.564 42.564v72.229c0 4.142 3.357 7.5 7.5 7.5s7.5-3.358 7.5-7.5v-72.229c0-31.741-25.823-57.564-57.564-57.564z"/><path d="m504.5 330.506h-37.381v-33.407c0-12.648-2.487-24.936-7.212-36.308l24.713-24.712c2.929-2.929 2.929-7.678 0-10.606-2.93-2.929-7.678-2.929-10.607 0l-21.355 21.354c-3.63-5.772-7.887-11.206-12.78-16.181-16.178-16.448-37.332-26.269-60.075-28.05v-31.084c0-4.142-3.357-7.5-7.5-7.5s-7.5 3.358-7.5 7.5v31.075c-30.965 2.469-57.326 19.924-72.805 44.724l-21.621-21.621c-2.93-2.929-7.678-2.929-10.607 0s-2.929 7.678 0 10.606l25.018 25.017c-8.903 21.501-7.299 36.024-7.299 69.192h-37.381c-4.142 0-7.5 3.358-7.5 7.5s3.358 7.5 7.5 7.5h37.381c0 33.348-1.594 47.937 7.425 69.502l-24.926 24.925c-2.929 2.929-2.929 7.678 0 10.606 2.929 2.929 7.677 2.929 10.607 0l21.572-21.571c3.982 6.334 8.73 12.252 14.208 17.634 16.028 15.747 36.505 25.064 58.429 26.804v31.095c0 4.142 3.357 7.5 7.5 7.5s7.5-3.358 7.5-7.5v-31.084c22.743-1.781 43.896-11.601 60.074-28.049 4.969-5.052 9.283-10.577 12.949-16.45 22.999 23 22.565 23.601 26.708 23.601 6.622 0 10.042-8.065 5.304-12.803l-24.797-24.797c4.643-11.286 7.079-23.47 7.079-36.005v-33.407h37.379c4.143 0 7.5-3.358 7.5-7.5s-3.357-7.5-7.5-7.5zm-52.381 48.408c0 43.239-35.161 79.039-78.38 79.803-21.302.401-41.494-7.725-56.853-22.814-15.734-15.458-24.399-36.125-24.399-58.192v-79.409c0-44.729 35.878-80.909 79.637-81.013.06.001.119.009.179.009.078 0 .154-.009.232-.012.401.001.804.003 1.205.011 43.218.766 78.379 36.565 78.379 79.803z"/><path d="m237.536 381.865h-20.692c4.156-21.236-.959-43.55-15.161-60.942l15.521-15.521c2.929-2.929 2.929-7.678 0-10.606-2.929-2.929-7.678-2.929-10.606 0l-15.528 15.528c-17.704-14.418-40.263-19.057-61.169-14.884v-20.975c0-4.142-3.358-7.5-7.5-7.5s-7.5 3.358-7.5 7.5v25.682c-15.852 6.876-22.673 15.267-39.259 31.853l-18.791-18.791c-2.929-2.929-7.678-2.929-10.606 0-2.929 2.929-2.929 7.678 0 10.606l18.791 18.791-16.013 16.012c-6.871 6.871-12.224 14.832-15.94 23.481h-25.583c-4.142 0-7.5 3.358-7.5 7.5s3.358 7.5 7.5 7.5h20.935c-.978 4.984-1.464 10.104-1.418 15.306.15 16.918 5.907 32.817 16.342 45.63l-15.528 15.528c-2.929 2.929-2.929 7.678 0 10.606 2.929 2.929 7.678 2.929 10.606 0l15.521-15.521c17.588 14.363 40.073 19.318 61.176 15.119v20.733c0 4.142 3.358 7.5 7.5 7.5s7.5-3.358 7.5-7.5v-25.449c15.547-6.79 22.072-14.898 39.26-32.086 20.096 20.097 19.961 20.988 24.094 20.988 6.621 0 10.043-8.065 5.303-12.803l-18.791-18.791c17.152-17.152 25.405-23.808 32.19-39.493h25.345c4.142 0 7.5-3.358 7.5-7.5s-3.357-7.501-7.499-7.501zm-51.483 27.229-43.923 43.923c-22.522 22.521-59.482 22.854-82.392.741-11.288-10.895-17.582-25.628-17.722-41.486-.144-16.258 6.111-31.545 17.613-43.047l42.632-42.631c23.45-23.451 61.651-23.598 84.534.11 22.111 22.909 21.778 59.869-.742 82.39z"/><path d="m117.956 340.997-43.922 43.922c-23.305 23.305-7.145 64.016 26.524 64.016 18.029 0 25.962-10.407 37.999-22.444 2.929-2.929 2.929-7.678 0-10.606-2.929-2.929-7.678-2.929-10.606 0-11.348 11.348-15.924 18.051-27.393 18.051-20.273 0-29.853-24.474-15.917-38.41l43.922-43.922c14.139-14.139 38.414-4.066 38.414 15.917 0 11.466-6.729 16.067-17.813 27.151-2.929 2.929-2.929 7.678 0 10.606 2.929 2.929 7.678 2.929 10.606 0 11.362-11.362 22.207-19.493 22.207-37.758-.001-33.337-40.481-50.062-64.021-26.523z"/></svg>