<?xml version="1.0" encoding="iso-8859-1"?>
<!-- Generator: Adobe Illustrator 19.0.0, SVG Export Plug-In . SVG Version: 6.00 Build 0)  -->
<svg version="1.1" id="Capa_1" xmlns="http://www.w3.org/2000/svg" xmlns:xlink="http://www.w3.org/1999/xlink" x="0px" y="0px"
	 viewBox="0 0 512 512" style="enable-background:new 0 0 512 512;" xml:space="preserve">
<g>
	<g>
		<path d="M436.976,75.024c-100.027-100.028-261.917-100.035-361.953,0c-100.026,100.027-100.036,261.919,0,361.954
			c100.026,100.026,261.918,100.035,361.954,0C537.006,336.951,537.011,175.06,436.976,75.024z M256.001,496.944
			c-132.856,0-240.944-108.086-240.944-240.943S123.144,15.058,256.001,15.058c132.854,0,240.94,108.086,240.942,240.944
			C496.944,388.858,388.857,496.944,256.001,496.944z"/>
	</g>
</g>
<g>
	<g>
		<path d="M463.068,262.187c-4.137-0.282-7.702,2.863-7.972,6.995c-2.403,36.84-14.85,71.899-36.113,101.927L318.261,270.387
			c0-29.324,0.997-33.57-3.829-41.1c-7.402-11.758-26.439-14.037-26.467-33.167l-0.001-61.516c5.001-3.899,8.235-9.964,8.235-16.782
			v-24.14c0-11.741-9.552-21.292-21.292-21.292h-37.933c-11.741,0-21.292,9.551-21.292,21.292v24.14
			c0,6.818,3.234,12.883,8.236,16.782c0,11.811,0,32.61,0,41.44l-83.028-83.029C263.107,6.366,438.704,81.268,454.481,235.44
			c0.422,4.119,4.087,7.123,8.224,6.696c4.119-0.422,7.118-4.103,6.696-8.224C452.432,68.103,258.336-17.034,124.849,86.238
			c-3.571,2.763-3.906,8.042-0.714,11.233c5.306,5.306,172.501,172.5,173.634,173.633v0.001
			c125.888,125.888,117.674,118.958,122.064,118.958c2.307,0,4.502-1.064,5.931-2.911c26.198-33.861,41.516-74.317,44.3-116.993
			C470.332,266.026,467.2,262.457,463.068,262.187z M230.678,117.821v-24.14c0-3.471,2.825-6.295,6.295-6.295h37.933
			c3.471,0,6.295,2.823,6.295,6.295v24.14c0,2.723-1.804,4.997-3.765,5.758c-1.707,0.753,0.794,0.537-40.461,0.537
			C233.557,124.116,230.678,121.333,230.678,117.821z M272.966,139.114v19.871h-34.051v-19.871H272.966z M303.264,255.39
			c-33.038-33.037-62.363-62.363-64.35-64.35l0.001-17.059h34.053v22.149c0.024,17.079,10.689,26.785,13.958,29.353
			C305.414,239.937,303.264,233.515,303.264,255.39z"/>
	</g>
</g>
<g>
	<g>
		<path d="M396.785,407.243C84.409,94.869,103.923,112.854,99.187,113.025c-2.081,0.074-4.036,1.011-5.399,2.584
			c-33.736,38.948-52.315,88.807-52.315,140.393c0,118.291,96.237,214.527,214.528,214.527c51.586,0,101.445-18.579,140.39-52.315
			C399.682,415.363,399.857,410.317,396.785,407.243z M303.264,334.931v49.404h-29.827c-4.141,0-7.499,3.357-7.499,7.499
			s3.357,7.499,7.499,7.499h29.827v10.516c0,5.411-4.401,9.813-9.813,9.813h-75.02c-5.411,0-9.813-4.402-9.813-9.813v-10.516h29.825
			c4.141,0,7.499-3.357,7.499-7.499s-3.357-7.499-7.499-7.499h-29.825V273.301h33.015L303.264,334.931z M208.825,240.493
			l17.81,17.81h-18.017C208.617,241.468,208.548,241.798,208.825,240.493z M256.001,455.531
			c-110.022,0-199.531-89.509-199.531-199.53c0-45.283,15.389-89.132,43.495-124.368l97.553,97.553
			c-2.626,4.157-3.898,8.695-3.898,13.314c0,4.822,0,157.062,0,167.348c0,13.681,11.13,24.811,24.811,24.811h75.02
			c13.681,0,24.811-11.13,24.811-24.811c0-7.224,0-53.02,0-59.921l62.106,62.106C345.132,440.142,301.283,455.531,256.001,455.531z"
			/>
	</g>
</g>
<g>
</g>
<g>
</g>
<g>
</g>
<g>
</g>
<g>
</g>
<g>
</g>
<g>
</g>
<g>
</g>
<g>
</g>
<g>
</g>
<g>
</g>
<g>
</g>
<g>
</g>
<g>
</g>
<g>
</g>
</svg>
