<svg width="50" height="50" viewBox="0 0 50 50" fill="none" xmlns="http://www.w3.org/2000/svg">
<path d="M42.6736 7.32653C32.9053 -2.44183 17.0957 -2.44252 7.32651 7.32653C-2.44168 17.0948 -2.44266 32.9046 7.32651 42.6736C17.0947 52.4418 32.9045 52.4426 42.6737 42.6736C52.4421 32.9053 52.4426 17.0957 42.6736 7.32653ZM25.0002 48.5297C12.0259 48.5297 1.47044 37.9744 1.47044 25.0001C1.47044 12.0257 12.0258 1.47047 25.0002 1.47047C37.9742 1.47047 48.5295 12.0257 48.5297 25.0002C48.5298 37.9744 37.9744 48.5297 25.0002 48.5297Z" fill="#FF3242" fill-opacity="0.6"/>
<path d="M12.5587 34.1765C13.9339 35.5845 16.2797 35.126 17.0348 33.2599C17.4675 32.1911 17.2399 31.0198 16.4418 30.2025C15.1714 28.9022 15.1714 26.7865 16.4418 25.4861C19.853 21.9943 19.853 16.3132 16.4418 12.8213C15.3715 11.7257 13.6295 11.7257 12.5587 12.8213C11.4883 13.9173 11.4883 15.6997 12.5587 16.7958C13.8291 18.0956 13.8291 20.2118 12.5587 21.5117C9.14744 25.0035 9.14744 30.6847 12.5587 34.1765ZM13.779 15.5467C13.1358 14.888 13.5979 13.7652 14.5002 13.7652C14.7617 13.7652 15.0228 13.8669 15.2215 14.0703C17.9602 16.8734 17.9602 21.4345 15.222 24.2371C13.2786 26.2262 13.2786 29.4625 15.2215 31.4515C15.6664 31.9064 15.502 32.4338 15.441 32.5845C15.1398 33.3278 14.2609 33.4212 13.779 32.928C11.0403 30.1249 11.0403 25.5638 13.779 22.7611C15.7219 20.7721 15.7219 17.5358 13.779 15.5467Z" fill="#FF3242" fill-opacity="0.6"/>
<path d="M22.0861 34.1925C23.4495 35.5755 25.7681 35.12 26.5137 33.2937C26.9417 32.2456 26.7165 31.0966 25.9267 30.2951C23.924 28.263 23.9235 24.9799 25.9272 22.9478C27.7454 21.1024 28.8363 18.6551 28.9985 16.0564C29.0284 15.5791 28.6715 15.1679 28.2011 15.1376C27.7284 15.1081 27.325 15.4698 27.2951 15.9471C27.1593 18.1247 26.2443 20.1759 24.7201 21.723C22.0499 24.4318 22.0495 28.8106 24.7201 31.5204C25.1597 31.9664 24.997 32.4832 24.9367 32.6309C24.6406 33.3567 23.7725 33.4546 23.2932 32.9677C19.8444 29.4683 19.8444 23.7746 23.2927 20.2752C25.9629 17.5663 25.9633 13.1875 23.2932 10.4782C22.8996 10.0788 22.8996 9.42927 23.2932 9.03038C23.6863 8.63103 24.3265 8.63103 24.7196 9.03038C25.6104 9.93378 26.2877 10.9918 26.7326 12.1744C26.9006 12.6213 27.3938 12.8453 27.8343 12.6748C28.2748 12.5044 28.4955 12.004 28.3275 11.557C27.7963 10.145 26.9886 8.8826 25.9267 7.80513C24.8679 6.73083 23.1449 6.73129 22.0861 7.80558C21.0269 8.87988 21.0269 10.6282 22.0861 11.7025C24.0888 13.7346 24.0893 17.0178 22.0861 19.0504C17.9716 23.2252 17.9716 30.0177 22.0861 34.1925Z" fill="#FF3242" fill-opacity="0.6"/>
<path d="M32.5587 33.2123C33.9339 34.5591 36.2797 34.1205 37.0348 32.3355C37.4675 31.3132 37.2399 30.1928 36.4418 29.4111C35.1714 28.1673 35.1714 26.1436 36.4418 24.8998C39.853 21.5597 39.853 16.1256 36.4418 12.7856C35.3715 11.7377 33.6295 11.7377 32.5587 12.7856C31.4883 13.8339 31.4883 15.5389 32.5587 16.5872C33.8291 17.8306 33.8291 19.8548 32.5587 21.0981C29.1474 24.4382 29.1474 29.8723 32.5587 33.2123ZM33.779 15.3925C33.1358 14.7624 33.5979 13.6885 34.5002 13.6885C34.7617 13.6885 35.0228 13.7857 35.2215 13.9803C37.9602 16.6615 37.9602 21.0243 35.222 23.7051C33.2786 25.6077 33.2786 28.7032 35.2215 30.6058C35.6664 31.0409 35.502 31.5454 35.441 31.6895C35.1398 32.4005 34.2609 32.4898 33.779 32.018C31.0403 29.3368 31.0403 24.9741 33.779 22.2933C35.7219 20.3907 35.7219 17.2951 33.779 15.3925Z" fill="#FF3242" fill-opacity="0.6"/>
<circle cx="25" cy="25" r="19.5" stroke="#FF3242" stroke-opacity="0.6"/>
</svg>
