<svg xmlns="http://www.w3.org/2000/svg" width="63" height="49" viewBox="0 0 63 49"><g><g><g/><g><path fill-opacity=".8" d="M49.02 19.39v4.674h3.4v5.523h6.797v-5.523h2.974V19.39z"/></g><g><g><g><path fill-opacity=".8" d="M55.99 15.809c-10.324-3.65-22.92-2.149-22.92 8.592 0 10.74 14.431 11.6 22.92 8.593v9.451C33.07 54.047.81 48.09.81 24.23.81 2.833 33.07-6.103 55.99 6.786zm-28.068 3.19c0-5.19-4.326-9.013-9.11-9.013-4.751 0-8.653 3.946-8.681 8.277l.007 16.401c.418 2.398 2.725 3.715 4.944 3.8l.094-19.556c0-2.125 2.076-3.824 3.824-3.824 1.774 0 3.824 1.274 3.824 3.824S20.699 22.732 19 22.732c-1.7 0-1.93-.152-2.124-.255v4.928c.85.425 1.274.425 2.124.425 4.249 0 8.922-3.642 8.922-8.831z"/></g></g></g></g></g></svg>