<svg xmlns="http://www.w3.org/2000/svg" width="40" height="36" viewBox="0 0 40 36"><g><g><path fill="#fff" d="M38.155 7.274A1.965 1.965 0 0 1 40 9.234v9.654a2.632 2.632 0 0 1-2.32 2.612l-24.09 2.868a3.315 3.315 0 0 1-.391.024l-.043-.001-1.808 3.314c-.349.64-.335 1.397.037 2.024a2.028 2.028 0 0 0 1.76 1.002h22.888c1.45 0 2.63 1.18 2.63 2.63s-1.18 2.63-2.63 2.63-2.63-1.18-2.63-2.63c0-.505.143-.977.39-1.378H15.56a2.633 2.633 0 0 1-2.24 4.008c-1.45 0-2.63-1.18-2.63-2.63 0-.718.29-1.37.758-1.845a3.295 3.295 0 0 1-1.139-1.147 3.27 3.27 0 0 1-.06-3.264l1.632-2.99a3.297 3.297 0 0 1-1.827-2.033L3.663 1.75a.707.707 0 0 0-.677-.497H.626A.626.626 0 1 1 .626 0h2.36C3.847 0 4.6.552 4.858 1.374l1.25 3.978zm-3.5 26.087c0 .76.619 1.378 1.378 1.378a1.38 1.38 0 0 0 1.378-1.378 1.38 1.38 0 0 0-1.378-1.378 1.38 1.38 0 0 0-1.378 1.378zm-22.713 0c0 .76.618 1.378 1.378 1.378a1.38 1.38 0 0 0 1.377-1.378 1.38 1.38 0 0 0-1.377-1.378 1.38 1.38 0 0 0-1.378 1.378zm4.14-26.156l1.421 6.824h6.852l-.288-6.345zm-7.247 6.824h7.388l-1.437-6.902-8.276-.496zm9.17 8.552l-1.52-7.3H9.228l2.02 6.425a2.047 2.047 0 0 0 2.193 1.418zm6.703-.798l-.296-6.501h-6.648l1.49 7.15zm7.359-6.501h-6.401l.289 6.353 6.112-.728zm0-1.253V8.164l-6.743-.405.285 6.27zm6.68 1.253H33.32v5.476l4.213-.501a1.379 1.379 0 0 0 1.215-1.369zm0-1.253V9.233a.71.71 0 0 0-.667-.708l-4.76-.286v5.79z"/></g></g></svg>